<svg width="76" height="24" viewBox="0 0 76 24" fill="none" xmlns="http://www.w3.org/2000/svg">
<path d="M4.438 22.6671V9.39995L14.097 22.6671H17.921V1.21053H13.455V14.4474L3.825 1.21053H0V22.6682H4.438V22.6671ZM26.788 23C28.658 23 30.026 21.9732 30.585 21.1561V22.6671H34.8V7.55606H30.585V9.06706C30.026 8.25103 28.658 7.22317 26.788 7.22317C23.131 7.22317 20.312 10.8202 20.312 15.1121C20.312 19.403 23.132 23 26.788 23ZM27.738 18.8593C25.839 18.8593 24.555 17.2878 24.555 15.1121C24.555 12.9353 25.839 11.3638 27.737 11.3638C29.635 11.3638 30.92 12.9353 30.92 15.1121C30.92 17.2878 29.635 18.8593 27.737 18.8593H27.738ZM46.039 23C49.696 23 52.516 19.403 52.516 15.1121C52.516 10.8202 49.696 7.22317 46.039 7.22317C44.169 7.22317 42.801 8.25103 42.243 9.06706V0H38.028V22.6671H42.243V21.1561C42.801 21.9721 44.169 23 46.039 23ZM45.09 18.8593C43.192 18.8593 41.908 17.2878 41.908 15.1121C41.908 12.9353 43.192 11.3638 45.09 11.3638C46.988 11.3638 48.273 12.9353 48.273 15.1121C48.273 17.2878 46.988 18.8593 45.09 18.8593ZM59.122 22.6671V0H54.906V22.6671H59.122ZM67.989 23C69.859 23 71.227 21.9732 71.785 21.1561V22.6671H76V7.55606H71.785V9.06706C71.227 8.25103 69.859 7.22317 67.989 7.22317C64.332 7.22317 61.512 10.8202 61.512 15.1121C61.512 19.403 64.332 23 67.989 23ZM68.938 18.8593C67.039 18.8593 65.755 17.2878 65.755 15.1121C65.755 12.9353 67.039 11.3638 68.938 11.3638C70.836 11.3638 72.12 12.9353 72.12 15.1121C72.12 17.2878 70.836 18.8593 68.938 18.8593Z" fill="#040062"/>
</svg>
